<?xml version="1.0" encoding="UTF-8"?>
<svg width="306px" height="347px" viewBox="0 0 306 347" version="1.1" xmlns="http://www.w3.org/2000/svg" xmlns:xlink="http://www.w3.org/1999/xlink">
    <title>instantcash-hero-section</title>
    <defs>
        <linearGradient x1="50.459%" y1="63.093%" x2="50.459%" y2="37.093%" id="linearGradient-1">
            <stop stop-color="#808080" stop-opacity="0.25" offset="0%"></stop>
            <stop stop-color="#808080" stop-opacity="0.12" offset="54%"></stop>
            <stop stop-color="#808080" stop-opacity="0.1" offset="100%"></stop>
        </linearGradient>
        <linearGradient x1="50.003%" y1="99.987%" x2="50.003%" y2="0%" id="linearGradient-2">
            <stop stop-color="#808080" stop-opacity="0.25" offset="0%"></stop>
            <stop stop-color="#808080" stop-opacity="0.12" offset="54%"></stop>
            <stop stop-color="#808080" stop-opacity="0.1" offset="100%"></stop>
        </linearGradient>
    </defs>
    <g id="Page-1" stroke="none" stroke-width="1" fill="none" fill-rule="evenodd">
        <g id="instantcash-hero-section" fill-rule="nonzero">
            <g id="Group">
                <rect id="Rectangle" fill="#3A3768" x="301" y="78" width="5" height="42" rx="2.29"></rect>
                <rect id="Rectangle" fill="#3A3768" x="132" y="45" width="3" height="14" rx="1.5"></rect>
                <rect id="Rectangle" fill="#3A3768" x="131" y="71" width="4" height="24" rx="2"></rect>
                <rect id="Rectangle" fill="#3A3768" x="132" y="103" width="3" height="25" rx="1.5"></rect>
                <rect id="Rectangle" fill="#3A3768" x="134" y="0" width="171" height="347" rx="20.99"></rect>
                <path d="M280.5,8 L261.002,8 L261.002,10.356 C261.002,13.319 259.831,16.159 257.745,18.254 C255.663658,20.3461868 252.83414,21.5223335 249.883,21.522 L187.873,21.522 C184.921513,21.5225996 182.091586,20.3464326 180.01,18.254 C177.922715,16.1555618 176.751631,13.3157632 176.753,10.356 L176.753,8 L158.5,8 C151.044,8 145,14.072 145,21.562 L145,323.438 C145,327.035 146.422,330.484 148.954,333.028 C151.480809,335.569325 154.916273,337 158.5,337 L280.5,337 C287.956,337 294.000029,330.928 294.000029,323.438 L294.000029,21.585 C294.007485,17.9873126 292.588508,14.533366 290.054,11.98 C287.526553,9.4337731 284.087654,8 280.5,8 L280.5,8 Z" id="Path" fill="#F6F6F6"></path>
                <rect id="Rectangle" fill="#E6E8EC" x="203" y="10" width="24" height="5" rx="2.5"></rect>
                <circle id="Oval" fill="#E6E8EC" cx="232.5" cy="12.5" r="2.5"></circle>
                <path d="M94,167.37 C94.2565147,167.650654 94.6762749,167.70942 95,167.51 C94.6614256,167.515439 94.3240637,167.468209 94,167.37 L94,167.37 Z" id="Path" fill="url(#linearGradient-1)"></path>
                <path d="M162.726,52.288 C161.517,51.932 159.799,51.351 157.719,50.621 C159.877836,47.791071 161.454841,44.5616107 162.359,41.119 L162.182,41.189 C162.239,40.975 162.302,40.769 162.36,40.556 C158.384,42.2 153.978,39.406 151.177,35.836 C148.375,32.266 146.467,27.823 143.402,24.53 C142.122593,23.2254204 140.745604,22.0202627 139.283,20.925 C138.378,20.213 137.399,19.471 136.293,19.437 C134.505,19.385 133.102,21.161 131.377,21.696 C130.240085,21.9565003 129.054589,21.9126952 127.94,21.569 C123.489,20.529 119.198,18.615 114.678,18.12 C112.248121,17.8132167 109.780098,18.0951393 107.482,18.942 C105.19,19.828 104.159,21.581 102.326,22.966 C100.338,24.472 96.379,24.438 94.036,24.691 C91.196,25.018 88.336,25.139 85.477,25.053 C83.834,24.903 82.178,24.965 80.55,25.237 C77.147,25.995 74.415,28.743 71.865,31.387 C71.1653799,31.9916991 70.6642541,32.7932216 70.427,33.687 C70.3956157,33.9386921 70.3956157,34.1933079 70.427,34.445 C70.401,35.133 70.518,35.818 70.771,36.457 C71.5409721,38.8330217 72.6403442,41.0893265 74.037,43.16 C75.079,44.677 76.288,46.103 76.901,47.896 C77.182,48.779 77.331,49.7 77.342,50.626 C77.3100476,51.6112288 77.2087975,52.5929874 77.039,53.564 C76.5888033,56.2402184 75.8491284,58.8595928 74.833,61.376 C74.294,62.71 73.687,64.038 73.543,65.498 C73.5259653,65.7887507 73.5259653,66.0802493 73.543,66.371 C73.372,70.872 77.846,74.12 78.7,78.598 C78.768,78.968 78.81,79.343 78.826,79.718 C78.729,82.512 77.165,85.243 74.862,86.324 C75.062,86.404 75.268,86.473 75.475,86.548 C75.2771116,86.6740937 75.0724725,86.7892658 74.862,86.893 C75.28,87.053 75.709,87.192 76.145,87.318 C73.5094146,89.634983 71.2973809,92.3931728 69.608,95.469 C61.897,110.144 9.34,138.932 9.34,138.932 C9.34,138.932 9.638,139.098 10.119,139.386 C9.924,139.506 9.718,139.645 9.489,139.8 C4.939,142.88 -5.739,151.871 3.914,163.207 C3.914,163.207 11.448,151.107 16.724,145.962 C16.964,145.732 17.194,145.519 17.417,145.318 C17.656,145.685 17.731,146.135 17.624,146.56 L52.186,126.803 C52.186,126.803 64.469,118.054 67.896,116.077 C69.076,115.398 72.083,113.513 75.681,112.679 L75.28,112.858 C76.5709143,112.495748 77.9033632,112.302469 79.244,112.283 C85.363,112.38 91.985,116.939 94.174,134.994 C97.101,159.171 95.744,163.529 94.804,164.126 C94.6874205,164.117283 94.5721023,164.096164 94.46,164.063 C94.488,164.09 94.519,164.113 94.552,164.133 C94.4237098,164.12442 94.2968552,164.100929 94.174,164.063 C94.3078894,164.191177 94.4993581,164.239424 94.678,164.19 C94.8069029,164.227846 94.9456833,164.211221 95.062,164.144 L95.526,164.144 C95.526,164.362 95.491,164.592 95.474,164.816 C95.428,164.816 95.199,164.948 95.474,164.966 C95.4080811,166.430925 95.4080811,167.898075 95.474,169.363 C92.432,169.536 89.396,169.72 86.732,169.886 L86.972,168.604 L87.082,168.03 C89.413,167.84 91.63,167.144 91.888,165.213 C92.461,160.983 86.732,158.723 81.891,158.441 C77.05,158.16 47.901,160.137 47.901,160.137 C47.901,160.137 43.53,165.885 57.388,167.673 C57.801,167.892 58.23,168.133 58.666,168.386 C64.091,171.536 71.459,177.33 74.982,180.187 L75.475,180.584 L73.893,181.866 C82.487,183.843 90.748,217.149 95.313,232.387 C99.88,247.626 109.883,247.063 118.167,244.809 C125.929,242.689 126.92,219.759 127.012,216.879 L127.012,216.585 L140.813,233.893 L141.861,235.21 C142.268,235.422 142.663,235.623 143.053,235.813 C153.508,240.877 165.058,231.174 161.769,220.138 C158.452,208.986 153.296,192.506 149.859,185.538 C146.995,179.704 143.265,170.018 141.008,163.937 C141.3,163.816 141.585,163.677 141.861,163.523 L141.718,162.753 L141.861,162.678 C141.861,162.678 138.539,145.117 138.355,132.648 L138.355,131.994 L138.355,131.585 C140.853,131.011 142.435,130.781 142.435,130.781 L142.48,130.241 L142.188,130.304 L143.574,114.128 C143.574,114.128 148.674,103.097 144.772,98.498 C143.583433,97.1469997 142.790373,95.494445 142.48,93.722 C141.827,89.491 142.48,82.449 151.572,76.592 C165.568,67.562 171.001248,60.22 171.001248,60.22 C171.001248,60.22 171.297,54.828 162.726,52.287 L162.726,52.288 Z M134.929,63.508 L134.929,56.036 C137.525,55.909 140.177,56.214 142.784,56.036 C144.065947,55.9452573 145.335972,55.7295674 146.576,55.392 L147.206,55.835 C143.39358,58.8157068 139.278681,61.387812 134.929,63.509 L134.929,63.508 Z M95.251,180.664 C96.276,181.389 97.307,182.142 98.321,182.894 C98.951,186.579 99.507,189.184 99.547,189.361 C98.3894113,186.334346 96.9511417,183.422653 95.251,180.664 Z" id="Shape" fill="url(#linearGradient-2)"></path>
                <path d="M118,177 L117.376,180.46 L116.896,183.106 L116.023,187.948 L107.561,194 C107.561,194 106.798,193.333 105.538,192.282 C102.069,189.365 94.78,183.424 89.428,180.236 C88.054772,179.340668 86.5647714,178.638739 85,178.15 L118,177 Z" id="Path" fill="#FFBDC6"></path>
                <path d="M118,177 L117.376,180.955 C115.50785,181.073027 113.632274,180.959498 111.792,180.617 L92.046,180.947 C91.1713635,180.886208 90.2984146,180.803182 89.428,180.698 C88.0786045,179.688316 86.5861943,178.885488 85,178.316 L118,177 Z" id="Path" fill="#000000" opacity="0.1"></path>
                <path d="M111.544,179.652 C111.544,179.652 121.383,181.405 121.959,177.042 C122.536,172.68 116.893,170.322 112.114,170.029 C107.336,169.736 78.643,171.782 78.643,171.782 C78.643,171.782 73.583,178.79 91.86,179.963 L111.544,179.652 Z" id="Path" fill="#474463"></path>
                <path d="M118,177 L117.376,180.46 L116.896,183.106 L116.023,187.948 L107.561,194 C107.561,194 106.798,193.333 105.538,192.282 C102.069,189.365 94.78,183.424 89.428,180.236 C88.054772,179.340668 86.5647714,178.638739 85,178.15 L118,177 Z" id="Path" fill="#000000" opacity="0.1"></path>
                <path d="M118,177 L117.376,180.955 C115.50785,181.073027 113.632274,180.959498 111.792,180.617 L92.046,180.947 C91.1713635,180.886208 90.2984146,180.803182 89.428,180.698 C88.0786045,179.688316 86.5861943,178.885488 85,178.316 L118,177 Z" id="Path" fill="#000000" opacity="0.1"></path>
                <path d="M111.55,179.656 C111.55,179.656 121.396,181.401 121.96,177.026 C122.526,172.652 116.894,170.322 112.115,170.029 C107.337,169.736 78.643,171.779 78.643,171.779 C78.643,171.779 73.582,178.778 91.86,179.943 L111.55,179.656 Z" id="Path" fill="#000000" opacity="0.1"></path>
                <polygon id="Path" fill="#474463" points="82 41 133 41 133 102 82 102"></polygon>
                <polygon id="Path" fill="#000000" opacity="0.1" points="82 41 133 41 133 102 82 102"></polygon>
                <path d="M21,145.18 C20.179,145.398 19.129,146.234 17.96,147.446 C12.934,152.691 5.733,165 5.733,165 C-3.473,153.445 6.716,144.315 11.057,141.177 C12.113,140.417 12.822,140 12.822,140 L21,145.18 Z M116.788,60 C116.788,60 119.272,77.697 127.836,81.91 C136.399,86.125 116.788,94 116.788,94 L90,83.88 C90,83.88 105.19,78.82 102.152,63.932 L116.788,60 Z M88,166 L87.382,169.45 L86.879,172.108 L86.007,176.951 L77.551,183 C77.551,183 76.788,182.338 75.529,181.287 C72.063,178.369 64.779,172.427 59.425,169.237 C58.0534563,168.340821 56.5642773,167.63914 55,167.152 L88,166 Z" id="Shape" fill="#FFBDC6"></path>
                <path d="M88,166 L87.382,169.954 C85.5138513,170.072799 83.6381799,169.959265 81.798,169.616 L62.052,169.948 C61.122,169.88 60.242,169.798 59.428,169.698 C58.0801527,168.683615 56.5874744,167.877609 55,167.307 L88,166 Z" id="Path" fill="#000000" opacity="0.1"></path>
                <path d="M81.556,168.656 C81.556,168.656 91.402,170.401 91.961,166.032 C92.521,161.664 86.9,159.322 82.115,159.029 C77.33,158.736 48.645,160.779 48.645,160.779 C48.645,160.779 43.577,167.777 61.863,168.949 L81.556,168.656 Z" id="Path" fill="#474463"></path>
                <path d="M86,173.2 L85.155,178.002 L76.959,184 C76.959,184 76.22,183.344 75,182.301 L85.838,173 L86,173.2 Z" id="Path" fill="#000000" opacity="0.1"></path>
                <path d="M142.028,236.855 C141.642,236.665 141.256,236.47 140.876,236.28 L139.839,234.976 L126.243,217.769 L126.243,218.068 C126.151,220.941 125.172,243.711 117.536,245.815 C109.387,248.055 99.557,248.619 95.076,233.475 C90.596,218.332 82.408,185.241 74,183.275 L86.508,173.04 C86.508,173.04 94.789,182.706 98.164,191.96 C98.037,191.384 92.318,164.718 97.012,160 L138.042,160 C138.042,160 144.377,178.005 148.719,186.925 C152.099,193.85 157.173,210.223 160.439,221.304 C163.675,232.246 152.313,241.907 142.028,236.854 L142.028,236.855 Z" id="Path" fill="#474463"></path>
                <path d="M141,164.546 C134.633,168.315 106.68,166.781 97.586,166.167 L95.109,165.987 C94.842,165.987 95.149,165.837 95.149,165.837 L95.404,163.273 L102.182,146.047 L138.476,125 C137.741,127.217 137.498,130.609 137.556,134.493 C137.724,146.973 141,164.546 141,164.546 Z" id="Path" fill="#000000" opacity="0.1"></path>
                <path d="M141,164.545 C134.674,168.315 106.904,166.781 97.87,166.167 L95.408,165.993 L95,165.958 L95.449,165.842 L97.669,165.263 L102.436,146.05 L138.493,125 C137.763,127.218 137.521,130.611 137.578,134.497 C137.745,146.97 141,164.545 141,164.545 L141,164.545 Z" id="Path" fill="#F2F1F2"></path>
                <path d="M138.087,134.447 C130.77,136.142 114.665,141.12 108.477,153.133 C104.351,161.133 100.879,164.563 98.457,166 L96,165.827 C96.016,165.777 96.03,165.727 96.04,165.677 L98.256,165.1 L103.014,145.964 L139,125 C138.277,127.197 138.03,130.577 138.087,134.447 L138.087,134.447 Z M12.953,140 L22,144.866 C21.092,145.071 19.93,145.858 18.638,147 C17.884,145.027 13.151,142.272 11,141.097 C11.6379858,140.708632 12.2893856,140.342741 12.953,140 L12.953,140 Z M95,165.52 C94.6709143,165.691335 94.2693819,165.63512 94,165.38 C94.3247241,165.475176 94.6616235,165.522342 95,165.52 L95,165.52 Z" id="Shape" fill="#000000" opacity="0.1"></path>
                <path d="M113.291,81.741 C113.291,81.741 105.703,82.577 100.365,76.988 C100.365,76.988 77.91,83.419 70.305,97.948 C62.698,112.478 11,140.988 11,140.988 C11,140.988 19.994,146.016 19.147,148.53 L53.147,128.966 C53.147,128.966 65.237,120.306 68.594,118.348 C71.951,116.39 90.514,104.374 94.446,137.07 C98.379,169.766 94.446,165.854 94.446,165.854 C94.446,165.854 100.066,167.813 108.213,152.161 C116.36,136.509 141.643,132.878 141.643,132.878 L143.047,116.395 C143.047,116.395 148.062,105.468 144.199,100.932 C143.029329,99.5913214 142.250332,97.9551509 141.947,96.202 C141.308,92.015 141.947,85.04 150.895,79.244 C164.662,70.298 170.001098,63.036 170.001098,63.036 C170.001098,63.036 170.281,57.722 161.852,55.208 C153.422,52.693 119.147,39 119.147,39 L117.995,43.753 L145.039,62.739 C145.039,62.739 131.555,73.62 120.857,73.357 C120.857,73.357 122.843,81.46 113.291,81.741 L113.291,81.741 Z" id="Path" fill="#FF748E"></path>
                <path d="M118,67.829 C117.327074,65.5893337 116.800957,63.3081576 116.425,61 L101.345,64.913 C102.009,67.741 101.89,70.693 101,73.46 C107.304,75.113 114.002,72.894 118,67.829 L118,67.829 Z" id="Path" fill="#000000" opacity="0.1"></path>
                <circle id="Oval" fill="#FFBDC6" cx="106" cy="57" r="16"></circle>
                <path d="M114.847,21.131 C119.319,21.633 123.565,23.546 127.967,24.589 C129.067,24.931 130.239,24.977 131.362,24.721 C133.071,24.191 134.461,22.416 136.234,22.468 C137.323,22.468 138.29,23.24 139.188,23.949 C140.628811,25.0432119 141.984381,26.2453401 143.243,27.545 C146.278,30.824 148.161,35.237 150.93,38.805 C153.699,42.371 158.067,45.143 162,43.506 C159.324,53.878 150.56,61.778 141.076,62.424 C137.294,62.677 133.418,61.894 129.757,63 C128.845,63.369 127.882,63.602 126.901,63.691 C124.793,63.691 123.096,61.767 121.781,59.894 C118.699,55.492 116.261,50.49 112.791,46.474 C111.631,45.148 110.293,43.886 108.671,43.644 C107.05,43.402 105.561,44.169 104.118,44.912 C101.738,46.14 99.305,47.413 97.457,49.522 C95.609,51.631 94.444,54.766 95.209,57.589 C95.62,59.122 96.559,60.505 96.576,62.107 C96.611,64.659 94.34,66.532 93.894,69.021 C93.7933912,70.0667883 93.7566564,71.1177392 93.784,72.168 C93.587,75.578 91.345,78.373 89.005,80.517 C88.09,81.353 87.082,82.246 86.815,83.537 C86.635,84.412 86.815,85.346 86.699,86.233 C86.358,88.446 84.139,89.569 82.175,89.863 C79.880992,90.1955877 77.5398634,89.9197146 75.386,89.063 C78.132,87.766 79.823,84.095 79.186,80.799 C78.311,76.236 73.7,72.963 74.094,68.313 C74.3118711,66.8874514 74.74162,65.5024802 75.369,64.204 C76.3742118,61.6974051 77.1044853,59.0891415 77.547,56.425 C77.894,54.362 78.062,52.178 77.414,50.219 C76.834,48.427 75.624,47.009 74.598,45.499 C73.2076221,43.4447886 72.1100817,41.206964 71.337,38.85 C71.0547838,38.1549259 70.9473124,37.4012526 71.024,36.655 C71.2503525,35.7594782 71.7459827,34.9549517 72.444,34.35 C74.964,31.717 77.657,28.974 81.034,28.225 C82.645,27.954 84.284,27.89 85.912,28.035 C88.742,28.125 91.574,28.006 94.386,27.677 C96.704,27.407 100.62,27.447 102.583,25.949 C104.413,24.549 105.445,22.802 107.698,21.915 C109.98245,21.0790224 112.435668,20.8099887 114.847,21.131 L114.847,21.131 Z M124,186 C124,186 133.283,204.357 130.469,210 M140.81,235 L127.112,217.786 L127.112,218.086 C127.112,218.086 126.322,212.513 128.931,214.384 C134.646,218.484 143.789,225.202 143.987,226.359 C144.184,227.516 142.134,232.139 140.809,235 L140.81,235 Z" id="Shape" fill="#000000" opacity="0.1"></path>
                <path d="M120.652,72.732 C120.652,72.732 121.798,77.462 118.106,79.827 C123.781,78.857 124.034,74.431 123.839,72.508 C122.785,72.678 121.719,72.752 120.652,72.732 Z M14.365,139.39 C14.365,139.39 65.829,110.822 73.407,96.26 C78.824,85.808 91.882,79.54 98.817,76.83 C93.762,78.552 76.726,85.044 70.328,97.38 C62.779,111.942 11.287,140.515 11.287,140.515 L14.365,139.39 Z M130.672,70.505 C139.43,67.779 147.799,60.971 147.799,60.971 L120.927,41.915 L121.54,39.309 L118.966,38.276 L117.849,43.04 L144.704,62.085 C140.400844,65.4727329 135.686006,68.3019043 130.672,70.505 L130.672,70.505 Z M130.826,135.05 C134.256188,133.877964 137.776166,132.987351 141.351,132.387 L141.396,131.847 C137.795144,132.639742 134.26121,133.710621 130.826,135.05 L130.826,135.05 Z M98.279,164.393 L98.032,164.393 C97.8431896,164.489533 97.6141507,164.457555 97.459,164.313 C97.645,164.367 97.839,164.393 98.032,164.393 C98.949,163.859 100.325,159.675 97.459,135.463 C94.375,109.634 82.24,111.649 75.602,114.623 C82.389,112.751 91.727,114.37 94.381,136.583 C97.276,160.793 95.894,164.978 94.954,165.513 C96.1471459,165.468106 97.3018562,165.079151 98.279,164.393 L98.279,164.393 Z M94.954,165.518 C94.7601415,165.519105 94.5671426,165.49216 94.381,165.438 C94.5361507,165.582555 94.7651896,165.614533 94.954,165.518 L94.954,165.518 Z" id="Shape" fill="#000000" opacity="0.1"></path>
                <path d="M114.846,20.121 C119.318,20.629 123.564,22.536 127.967,23.579 C129.067,23.919 130.239,23.964 131.362,23.706 C133.071,23.182 134.461,21.401 136.233,21.453 C137.323,21.487 138.29,22.225 139.188,22.933 C140.627475,24.0292017 141.982924,25.231557 143.243,26.53 C146.278,29.81 148.161,34.224 150.93,37.792 C153.699,41.359 158.067,44.132 162,42.494 C159.324,52.868 150.56,60.77 141.076,61.415 C137.294,61.675 133.418,60.891 129.757,61.992 C128.844909,62.3638489 127.882197,62.5967739 126.901,62.683 C124.793,62.683 123.095,60.758 121.781,58.885 C118.698,54.482 116.26,49.485 112.79,45.468 C111.631,44.137 110.293,42.875 108.671,42.633 C107.049,42.391 105.561,43.163 104.118,43.906 C101.737,45.134 99.304,46.402 97.456,48.517 C95.608,50.632 94.444,53.756 95.208,56.586 C95.62,58.119 96.558,59.502 96.576,61.104 C96.61,63.663 94.34,65.53 93.894,68.02 C93.7932994,69.0657823 93.7565644,70.1167388 93.784,71.167 C93.586,74.579 91.344,77.368 89.004,79.517 C88.089,80.347 87.081,81.247 86.814,82.532 C86.635,83.414 86.814,84.342 86.699,85.235 C86.357,87.448 84.139,88.572 82.175,88.86 C79.8806567,89.1981269 77.5376808,88.9217317 75.385,88.059 C78.131,86.768 79.823,83.091 79.185,79.8 C78.311,75.236 73.7,71.956 74.094,67.311 C74.31,65.886 74.74,64.501 75.368,63.201 C76.3724298,60.6920722 77.1026726,58.0819067 77.546,55.416 C77.894,53.358 78.062,51.174 77.413,49.209 C76.833,47.422 75.623,45.999 74.598,44.489 C73.2083338,42.4356642 72.1105175,40.1993094 71.336,37.844 C71.0551566,37.1461049 70.9477539,36.3905109 71.023,35.642 C71.2559659,34.7572052 71.7509457,33.9634947 72.443,33.365 C74.963,30.732 77.656,27.995 81.033,27.239 C82.6448047,26.9728985 84.283729,26.9110777 85.911,27.055 C88.741,27.143 91.574,27.024 94.386,26.697 C96.703,26.427 100.619,26.461 102.583,24.968 C104.413,23.574 105.444,21.822 107.698,20.934 C109.980684,20.092396 112.432621,19.8135172 114.846,20.121 L114.846,20.121 Z" id="Path" fill="#474463"></path>
                <circle id="Oval" fill="#FFFFFF" cx="221" cy="133" r="32"></circle>
                <path d="M257,135 C257,154.882251 240.882251,171 221,171 C201.117749,171 185,154.882251 185,135 C185,115.117749 201.117749,99 221,99 C240.882,99 257,115.118 257,135 L257,135 Z M216.878,154.292 L243.325,127.305 C243.758582,126.861333 244.000925,126.265349 244.000003,125.645 C244.000925,125.024651 243.758582,124.428667 243.325,123.985 L240.071,120.689 C239.644456,120.249529 239.058433,120.001055 238.446,120 C237.833567,120.001055 237.247544,120.249529 236.821,120.689 L215.251,142.699 L205.18,132.398 C204.751918,131.959715 204.165157,131.712613 203.5525,131.712613 C202.939843,131.712613 202.353082,131.959715 201.925,132.398 L198.671,135.738 C197.77641,136.663878 197.77641,138.132122 198.671,139.058 L213.624,154.311 C214.051356,154.750489 214.637989,154.998916 215.251,155 C215.861,155 216.447,154.752 216.878,154.311 L216.878,154.291 L216.878,154.292 Z" id="Shape" fill="#3ACC6C"></path>
            </g>
            <text id="`" fill="#090000" font-family="IndianRupee-Regular, Indian Rupee" font-size="20" font-weight="normal">
                <tspan x="169" y="215">`</tspan>
            </text>
            <text id="5,00,000" fill="#090000" font-family="Montserrat-Bold, Montserrat" font-size="20" font-weight="bold">
                <tspan x="183.395" y="215">5,00,000</tspan>
            </text>
            <text id="Congratulations" fill="#0D0000" font-family="Montserrat-Medium, Montserrat" font-size="13" font-weight="400">
                <tspan x="167" y="190">Congratulations</tspan>
            </text>
            <text id="Approved" fill="#090000" font-family="Montserrat-Medium, Montserrat" font-size="13" font-weight="400">
                <tspan x="189" y="244">Approved</tspan>
            </text>
        </g>
    </g>
</svg>